<svg width="17" height="18" viewBox="0 0 17 18" fill="none" xmlns="http://www.w3.org/2000/svg">
<path d="M15.4223 17.5H1.11768V3.59039H10.701V16.247H14.1741V8.4776H15.4223V17.5ZM2.366 16.247H9.45271V4.84338H2.366V16.247Z" fill="#0D0C22"/>
<path d="M11.2324 4.76812L5.91011 1.91813L0.587821 4.76812L0 3.66564L5.91011 0.5L11.8202 3.66564L11.2324 4.76812Z" fill="#0D0C22"/>
<path d="M10.6859 5.66335L10.1202 6.7805L16.0133 9.78802L16.579 8.67087L10.6859 5.66335Z" fill="#0D0C22"/>
<path d="M13.0833 9.48003H11.835V11.4851H13.0833V9.48003Z" fill="#0D0C22"/>
<path d="M13.0833 12.4839H11.835V14.4889H13.0833V12.4839Z" fill="#0D0C22"/>
<path d="M8.04397 9.48003H6.79569V11.4851H8.04397V9.48003Z" fill="#0D0C22"/>
<path d="M8.04397 12.4839H6.79569V14.4889H8.04397V12.4839Z" fill="#0D0C22"/>
<path d="M5.20942 9.48003H3.96114V11.4851H5.20942V9.48003Z" fill="#0D0C22"/>
<path d="M8.04397 6.47624H6.79569V8.4813H8.04397V6.47624Z" fill="#0D0C22"/>
<path d="M5.20942 6.47624H3.96114V8.4813H5.20942V6.47624Z" fill="#0D0C22"/>
<path d="M5.20942 12.4839H3.96114V14.4889H5.20942V12.4839Z" fill="#0D0C22"/>
<path d="M16.405 16.247H0.184807V17.5H16.405V16.247Z" fill="#0D0C22"/>
</svg>
