<svg width="15" height="20" viewBox="0 0 15 20" fill="none" xmlns="http://www.w3.org/2000/svg">
<path d="M11.5755 0.780563H2.479C1.10633 0.780563 0 1.90738 0 3.25957V12.9912C0 14.3639 1.12682 15.4702 2.479 15.4702H11.596C12.9687 15.4702 14.075 14.3434 14.075 12.9912V3.25957C14.075 1.90738 12.9482 0.780563 11.5755 0.780563ZM1.22926 3.25957C1.22926 2.58348 1.78242 2.00982 2.479 2.00982H11.596C12.2721 2.00982 12.8458 2.56299 12.8458 3.25957V7.70539C12.8458 8.75026 11.9853 9.61074 10.9404 9.61074H3.13461C2.08974 9.61074 1.22926 8.75026 1.22926 7.70539V3.25957ZM11.5755 14.2409H2.479C1.80291 14.2409 1.22926 13.6878 1.22926 12.9912V9.65171C1.72096 10.1229 2.39705 10.4302 3.13461 10.4302H10.9199C11.6575 10.4302 12.3336 10.1434 12.8253 9.65171V12.9912C12.8253 13.6878 12.2721 14.2409 11.5755 14.2409Z" fill="#0D0C22"/>
<path d="M3.29853 11.1473C2.60195 11.1473 2.04878 11.7005 2.04878 12.3971C2.04878 13.0936 2.60195 13.6468 3.29853 13.6468C3.99511 13.6468 4.54828 13.0936 4.54828 12.3971C4.54828 11.7005 3.97462 11.1473 3.29853 11.1473ZM3.29853 12.8068C3.07316 12.8068 2.88878 12.6224 2.88878 12.3971C2.88878 12.1717 3.07316 11.9873 3.29853 11.9873C3.52389 11.9873 3.70828 12.1717 3.70828 12.3971C3.70828 12.6224 3.52389 12.8068 3.29853 12.8068Z" fill="#0D0C22"/>
<path d="M10.756 11.1473C10.0594 11.1473 9.50626 11.7005 9.50626 12.3971C9.50626 13.0936 10.0594 13.6468 10.756 13.6468C11.4526 13.6468 12.0057 13.0936 12.0057 12.3971C12.0057 11.7005 11.4526 11.1473 10.756 11.1473ZM10.756 12.8068C10.5306 12.8068 10.3462 12.6224 10.3462 12.3971C10.3462 12.1717 10.5306 11.9873 10.756 11.9873C10.9814 11.9873 11.1658 12.1717 11.1658 12.3971C11.1658 12.6224 10.9814 12.8068 10.756 12.8068Z" fill="#0D0C22"/>
<path d="M2.86829 15.88L0.573671 18.1541C0.327819 18.3999 0.327819 18.7892 0.573671 19.0351C0.696597 19.158 0.860498 19.2194 1.00391 19.2194C1.16781 19.2194 1.33171 19.158 1.43415 19.0351L3.72877 16.7609C3.97462 16.5151 3.97462 16.1258 3.72877 15.88C3.5034 15.6341 3.09365 15.6341 2.86829 15.88Z" fill="#0D0C22"/>
<path d="M11.1863 15.88C10.9404 15.6341 10.5512 15.6341 10.3053 15.88C10.0594 16.1258 10.0594 16.5151 10.3053 16.7609L12.5794 19.0351C12.7024 19.158 12.8663 19.2194 13.0097 19.2194C13.1736 19.2194 13.3375 19.158 13.4399 19.0351C13.6858 18.7892 13.6858 18.3999 13.4399 18.1541L11.1863 15.88Z" fill="#0D0C22"/>
</svg>
