<svg width="46" height="46" viewBox="0 0 46 46" fill="none" xmlns="http://www.w3.org/2000/svg">
<circle cx="23" cy="23" r="22.5" fill="#FFE7EC" stroke="#FC2E5E"/>
<path d="M17.2521 30.9331H24.7257L22.5334 33.1254L23.3306 33.9226L26.8847 30.3685L23.3638 26.8476L22.5666 27.6448L24.7589 29.837H17.2189C15.4916 29.837 14.0633 28.4087 14.0633 26.6815C14.0633 24.9543 15.4916 23.526 17.2189 23.526H27.7483C30.1067 23.526 32 21.5994 32 19.2743C32 16.916 30.0735 15.0227 27.7483 15.0227H19.079L21.3044 12.7972L20.5073 12L16.9863 15.5209L20.5405 19.075L21.3377 18.2778L19.1786 16.1188H27.7816C29.5088 16.1188 30.9371 17.5471 30.9371 19.2743C30.9371 21.0015 29.5088 22.4298 27.7816 22.4298H17.2521C14.8937 22.4298 13.0004 24.3564 13.0004 26.6815C12.9672 29.0066 14.8937 30.9331 17.2521 30.9331Z" fill="#FC2E5E"/>
</svg>
