<svg width="42" height="57" viewBox="0 0 42 57" fill="none" xmlns="http://www.w3.org/2000/svg">
<path d="M20.6232 0C9.2545 0 4.96063e-06 9.25453 0 20.6232C-7.08661e-06 40.627 19.4605 55.8348 19.4605 55.8348C19.7927 56.0998 20.2051 56.2442 20.6301 56.2442C21.0551 56.2442 21.4674 56.0998 21.7996 55.8348C21.7996 55.8348 41.2602 40.627 41.2602 20.6232C41.2601 9.25453 31.9918 0 20.6232 0ZM20.6232 3.75092C29.9652 3.75092 37.5092 11.2812 37.5092 20.6232C37.5093 36.988 22.6907 49.9174 20.637 51.6686C18.5931 49.9262 3.75092 36.9944 3.75092 20.6232C3.75093 11.2812 11.2812 3.75092 20.6232 3.75092Z" fill="#7DC02D"/>
<path d="M20.6233 11.2527C15.4679 11.2527 11.2529 15.4676 11.2529 20.6231C11.2529 25.7786 15.4678 30.0073 20.6233 30.0073C25.7788 30.0073 30.0076 25.7786 30.0075 20.6231C30.0075 15.4676 25.7788 11.2527 20.6233 11.2527ZM20.6233 15.0036C23.7521 15.0036 26.2566 17.4943 26.2566 20.6231C26.2566 23.7519 23.7521 26.2564 20.6233 26.2564C17.4945 26.2564 15.0038 23.7519 15.0039 20.6231C15.0039 17.4943 17.4945 15.0036 20.6233 15.0036Z" fill="#333333"/>
</svg>
