<svg width="39" height="56" viewBox="0 0 39 56" fill="none" xmlns="http://www.w3.org/2000/svg">
<path d="M27.8 2H10.6C5.85035 2 2 5.85035 2 10.6V45C2 49.7497 5.85035 53.6 10.6 53.6H27.8C32.5497 53.6 36.4 49.7497 36.4 45V10.6C36.4 5.85035 32.5497 2 27.8 2Z" stroke="#7DC02D" stroke-width="3.6" stroke-linecap="round" stroke-linejoin="round"/>
<path d="M19.1997 47.8667C18.4394 47.8667 17.7102 47.5645 17.1727 47.027C16.6352 46.4895 16.333 45.7602 16.333 45C16.333 44.433 16.501 43.8788 16.816 43.4073C17.1311 42.936 17.5789 42.5685 18.1026 42.3515C18.6263 42.1345 19.2028 42.0777 19.759 42.1884C20.3151 42.299 20.8259 42.5719 21.2267 42.973C21.6277 43.3737 21.9006 43.8846 22.0113 44.4407C22.122 44.9968 22.0652 45.5733 21.8482 46.0971C21.6312 46.6208 21.2637 47.0686 20.7924 47.3836C20.3208 47.6987 19.7667 47.8667 19.1997 47.8667Z" fill="#333333"/>
</svg>
