<svg xmlns="http://www.w3.org/2000/svg" xmlns:xlink="http://www.w3.org/1999/xlink" width="484.636" height="784" viewBox="0 0 484.636 784">
  <defs>
    <clipPath id="clip-path">
      <rect id="Rectangle_5621" data-name="Rectangle 5621" width="484.636" height="784" transform="translate(462.168)" fill="#fff"/>
    </clipPath>
  </defs>
  <g id="pattern-zebra" transform="translate(-462.168)" clip-path="url(#clip-path)">
    <path id="Path_7948" data-name="Path 7948" d="M613.994,853.9s64.081-32.514,81.94-73.4,22.5-99.559,51.372-140.695,59.181-55.362,59.181-55.362-68.982-22.855-128.661,56.392c-59.686,79.217-86.606,143.5-137.487,178.279S476.258,853.9,476.258,853.9s84.885-18.288,135.283-53.819c50.4-35.569,58.953-58.657,58.953-58.657s-.725,56.114-56.5,112.476M153.684,1.6S104.26,18.937,74.908,52.46s-61.232,99.8-61.232,99.8-3.018-76.433,0-96.76c3.011-20.3,19.4-51.713,60.748-53.9,41.344-2.212,79.259,0,79.259,0M13.676,274.681C46.845,226.037,242.722,1.6,297.28,1.6,162.921-18.58-6.095,157.037,13.676,274.681m0,218.648s23.309-56.121,61.708-100.552c38.414-44.453,68.74-71.89,68.74-71.89S-9.984,338.686,13.676,493.329m0-158.976s132.631-32.507,224.138-131.547C329.3,103.751,413.444,1.6,413.444,1.6S303.851,7.254,230.957,105.278,13.676,334.353,13.676,334.353m0,348.163S62.887,583.958,130.895,522.51s155.1-142.726,184.457-202.654,76.805-114.3,155.083-160C548.712,114.133,548.228,93.3,614.763,54.717,681.3,16.1,716.035,1.6,716.035,1.6s-131.613,5.371-200.1,52.1-108.868,90.155-108.868,90.155,22.759-38.849,52.852-67.045S535.746,17.38,535.746,17.38s-70.7.76-111.549,34.034-81.94,95.241-126.47,147.563-57.979,71.875-92.95,100.575c-65.268,53.541-226.753,245.415-191.1,382.965M834.623,108.792S831,147.136,803.6,178.635c-38.186,43.9-89.163,27.5-133.561,28.452,65.517-73.108,104.7-27.331,164.583-98.3m0-107.195s-2.9,44.732-66.506,102.621c-63.59,57.919-166.327,83.3-238.73,117.847S351.3,354.139,351.3,354.139s57.232-131.562,169.279-182.861,118.383-58.92,172.2-104.637S775.464,5.178,834.623,1.6M232.408,787.364c59.679-45.7,121.306-130.042,159.478-196.019C430.05,525.294,507.353,410.5,586.62,357.674c79.237-52.834,124.258-49.772,166.825-28.948s81.178,74.162,81.178,74.162-27.36-180.83-178.545-162.03c-119.321,14.828-642.46,376.089-642.4,539.42,97.411-150.437,132.938-156.854,267.65-240.758C322.9,513.611,337.1,513.1,337.1,513.1s-17.126,58.416-87.581,113.266C130.47,719.078,56.7,728.339,0,889.488c54.9-58.965,153.859-41.956,232.408-102.124M834.623,470.933S777.9,436.395,703.531,431.324c-74.366-5.085-152.152,49.26-152.152,49.26s42.567-74.658,106.165-104.126c63.612-29.452,159.009,30.987,177.08,94.474M287.9,853.9S423.934,843,501.7,761.207c77.8-81.782,107.644-132.028,170.751-176.226s162.173-52.33,162.173-52.33-80.951-80.759-177.835-27.94c-96.847,52.849-157.529,129-194.7,177.768-37.19,48.764-67.033,58.416-67.033,58.416s45.98-41.647,56.756-70.1c10.746-28.422,58.7-95.5,110.553-136.121,51.877-40.624,82.211-55.873,82.211-55.873S552.594,490,480.184,574.3,352,738.63,299.654,796.264,235.067,853.9,235.067,853.9Zm469.182,0s77.538-1.031,77.538-70.866V628.878s-38.15,10.652-54.3,73.131-29.594,100.853-60.909,123.678C688.1,848.571,673.431,853.9,673.431,853.9Z" transform="translate(112.181 0.006)" fill="#fff"/>
  </g>
</svg>
