<svg xmlns="http://www.w3.org/2000/svg" width="22.711" height="22.414" viewBox="0 0 22.711 22.414">
  <path id="Path_12780" data-name="Path 12780" d="M10.623,7.026a1.583,1.583,0,0,0,1.385-.744L23.721-12.067a2.5,2.5,0,0,0,.264-.537,1.519,1.519,0,0,0,.079-.474,1.286,1.286,0,0,0-.361-.946,1.276,1.276,0,0,0-.948-.364,1.314,1.314,0,0,0-.687.164,1.8,1.8,0,0,0-.536.563L10.57,3.792,4.9-3.562a1.416,1.416,0,0,0-1.178-.654,1.343,1.343,0,0,0-.982.377,1.286,1.286,0,0,0-.384.959,1.378,1.378,0,0,0,.1.511,2.048,2.048,0,0,0,.314.52L9.2,6.277A1.788,1.788,0,0,0,10.623,7.026Z" transform="translate(-1.854 14.889)" fill="#fff" stroke="#fff" stroke-width="1"/>
</svg>
