<svg width="405" height="369" viewBox="0 0 405 369" fill="none" xmlns="http://www.w3.org/2000/svg">
<path fill-rule="evenodd" clip-rule="evenodd" d="M404.581 139.703C404.581 366.209 236.996 368.907 235.261 368.907C230.146 368.907 225.241 366.876 221.624 363.261C218.008 359.646 215.976 354.743 215.976 349.63V269.438C192.217 260.432 171.377 245.098 155.713 225.099C140.049 205.1 130.158 181.197 127.113 155.98C124.068 130.764 127.984 105.195 138.437 82.0441C148.891 58.8933 165.482 39.0432 186.415 24.6445C207.347 10.2458 231.822 1.84748 257.188 0.35945C282.555 -1.12858 307.845 4.35043 330.318 16.2028C352.792 28.0553 371.592 45.8292 384.683 67.5988C397.773 89.3685 404.654 114.304 404.581 139.703ZM194.163 68.55C175.285 87.4211 164.679 113.016 164.679 139.703C164.871 161.828 172.367 183.27 186.002 200.699C199.637 218.128 218.648 230.569 240.082 236.089C244.325 237.181 248.069 239.686 250.698 243.19C253.327 246.694 254.684 250.988 254.546 255.366V327.655C290.994 319.173 366.011 284.281 366.011 139.703C366.011 113.016 355.405 87.4211 336.527 68.55C317.648 49.679 292.043 39.0773 265.345 39.0773C238.647 39.0773 213.042 49.679 194.163 68.55ZM104.471 139.749C104.471 366.209 -62.9206 368.907 -64.6562 368.907C-69.7709 368.907 -74.676 366.877 -78.2926 363.262C-81.9092 359.648 -83.941 354.746 -83.941 349.634V269.458C-107.724 260.484 -128.595 245.175 -144.291 225.189C-159.987 205.204 -169.909 181.305 -172.98 156.085C-176.051 130.864 -172.155 105.285 -161.714 82.1202C-151.273 58.9556 -134.685 39.0899 -113.75 24.6773C-92.8144 10.2648 -68.3304 1.85546 -42.9528 0.361262C-17.5751 -1.13293 7.72751 4.34503 30.2114 16.2011C52.6952 28.0573 71.5022 45.839 84.5927 67.6181C97.6833 89.3972 104.558 114.342 104.471 139.749ZM-105.947 68.6094C-124.825 87.4767 -135.431 113.066 -135.431 139.749C-135.228 161.895 -127.704 183.352 -114.032 200.781C-100.36 218.21 -81.3052 230.632 -59.835 236.115C-55.592 237.207 -51.8478 239.711 -49.2188 243.215C-46.5898 246.718 -45.2329 251.011 -45.3715 255.388V327.663C-8.92331 319.182 65.9015 284.298 65.9015 139.749C65.9015 113.066 55.2956 87.4767 36.417 68.6094C17.5384 49.742 -8.0665 39.1425 -34.7649 39.1425C-61.4633 39.1425 -87.0682 49.742 -105.947 68.6094Z" fill="#7DC02D" fill-opacity="0.07"/>
</svg>
