<?xml version="1.0" encoding="utf-8"?>
<!-- Generator: Adobe Illustrator 24.1.3, SVG Export Plug-In . SVG Version: 6.00 Build 0)  -->
<svg version="1.1" id="Add-all-button" xmlns="http://www.w3.org/2000/svg" xmlns:xlink="http://www.w3.org/1999/xlink" x="0px"
	 y="0px" viewBox="0 0 14 14" style="enable-background:new 0 0 14 14;" xml:space="preserve">
<style type="text/css">
	.st0{fill:#060A3D;}
	.st1{fill:none;stroke:#060A3D;stroke-width:1.5;}
	.st2{fill:none;stroke:#FFFFFF;stroke-width:1.5;stroke-linecap:round;}
</style>
<g id="plus-icon" transform="translate(-321.133 -783.346)">
	<g id="Rectangle_5811" transform="translate(421.133 783.346) rotate(90)">
		<path class="st0" d="M7,86L7,86c3.9,0,7,3.1,7,7l0,0c0,3.9-3.1,7-7,7l0,0c-3.9,0-7-3.1-7-7l0,0C0,89.1,3.1,86,7,86z"/>
		<path class="st1" d="M7,86.8L7,86.8c3.5,0,6.3,2.8,6.3,6.3l0,0c0,3.5-2.8,6.3-6.3,6.3l0,0c-3.5,0-6.3-2.8-6.3-6.3l0,0
			C0.8,89.5,3.5,86.8,7,86.8z"/>
	</g>
	<line id="Line_9221" class="st2" x1="325.4" y1="790.7" x2="330.9" y2="790.7"/>
</g>
</svg>
