<svg width="40" height="40" viewBox="0 0 40 40" fill="none" xmlns="http://www.w3.org/2000/svg">
<path d="M30.6429 22.3546L14.608 38.3895C14.5026 38.4954 14.3638 38.5064 14.3101 38.5079C14.1892 38.5064 14.0738 38.4566 13.9863 38.3691L11.6367 36.02C13.2567 33.8793 13.0915 30.8075 11.1428 28.8578C9.19311 26.9071 6.12033 26.7414 3.98062 28.3644L1.63152 26.0153C1.54299 25.9267 1.49375 25.8118 1.49226 25.691C1.49176 25.6248 1.50568 25.499 1.61113 25.3935L17.647 9.35814C17.9384 9.06667 17.9384 8.59466 17.647 8.3032C17.3555 8.01174 16.8835 8.01174 16.5921 8.3032L0.556694 24.3381C0.192118 24.7017 -0.00583736 25.1891 0.000131133 25.7084C0.006597 26.2212 0.211018 26.7046 0.576091 27.0702L3.4166 29.9107C3.70806 30.2022 4.18057 30.2017 4.47103 29.9112C6.02085 28.3634 8.54005 28.3649 10.0879 29.9127C11.6342 31.46 11.6352 33.9803 10.0899 35.5306C9.79941 35.822 9.7999 36.2936 10.0909 36.5845L12.9309 39.424C13.2955 39.7886 13.7789 39.994 14.2917 40H14.3166C14.8264 40 15.3039 39.803 15.663 39.4444L31.6983 23.4095C31.9898 23.1181 31.9898 22.646 31.6983 22.3546C31.4069 22.0631 30.9344 22.0631 30.6429 22.3546ZM39.425 12.9308L36.5845 10.0903C36.2931 9.79881 35.8211 9.79931 35.5296 10.0898C33.9803 11.6381 31.4596 11.6376 29.9113 10.0903C28.3624 8.54144 28.3619 6.02124 29.9103 4.47241C30.2017 4.18095 30.2017 3.70894 29.9103 3.41747L27.0707 0.577454C26.6997 0.205417 26.2078 0.000497376 25.6856 0C25.1752 0 24.6963 0.197459 24.3387 0.55557L18.9123 5.98195C18.6208 6.27341 18.6208 6.74542 18.9123 7.03688C19.2038 7.32834 19.6758 7.32834 19.9672 7.03688L25.3941 1.61051C25.4697 1.53441 25.5732 1.49213 25.6851 1.49213C25.8079 1.49213 25.9248 1.54187 26.0153 1.63189L28.3639 3.981C26.74 6.12121 26.9041 9.194 28.8563 11.1452C30.807 13.0964 33.8808 13.2606 36.021 11.6366L38.3701 13.9857C38.5467 14.1623 38.5561 14.4418 38.3905 14.6074L32.9641 20.0338C32.6727 20.3253 32.6727 20.7973 32.9641 21.0888C33.1099 21.2345 33.3009 21.3071 33.4919 21.3071C33.6828 21.3071 33.8738 21.2345 34.0196 21.0888L39.4464 15.6624C40.193 14.9143 40.183 13.6893 39.425 12.9308ZM21.805 10.14C21.5146 9.84954 21.0416 9.84855 20.7501 10.141C20.4591 10.4325 20.4591 10.9045 20.7511 11.1959L21.1381 11.5824C21.2833 11.7276 21.4743 11.8003 21.6653 11.8003C21.8563 11.8003 22.0478 11.7276 22.1935 11.5814C22.4845 11.2899 22.4845 10.8179 22.1925 10.5265L21.805 10.14ZM23.7398 12.0743C23.4484 11.7828 22.9764 11.7828 22.6849 12.0743C22.3934 12.3658 22.3934 12.8378 22.6849 13.1292L23.0719 13.5162C23.2176 13.6619 23.4086 13.7346 23.5996 13.7346C23.7906 13.7346 23.9816 13.6619 24.1273 13.5162C24.4187 13.2247 24.4187 12.7527 24.1273 12.4613L23.7398 12.0743ZM19.8712 8.20572C19.5798 7.91425 19.1078 7.91425 18.8163 8.20572C18.5249 8.49718 18.5249 8.96919 18.8163 9.26065L19.2028 9.64711C19.3485 9.79284 19.5395 9.86546 19.7305 9.86546C19.9215 9.86546 20.1125 9.79284 20.2582 9.64711C20.5497 9.35565 20.5497 8.88364 20.2582 8.59218L19.8712 8.20572ZM25.5334 15.6693C25.7244 15.6693 25.9153 15.5967 26.0611 15.451C26.3525 15.1595 26.3525 14.6875 26.0611 14.3961L25.6746 14.0096C25.3832 13.7181 24.9111 13.7181 24.6197 14.0096C24.3282 14.3011 24.3282 14.7731 24.6197 15.0645L25.0061 15.451C25.1514 15.5962 25.3424 15.6693 25.5334 15.6693ZM29.4019 19.5379C29.5929 19.5379 29.7844 19.4653 29.9302 19.3191C30.2211 19.0276 30.2211 18.5556 29.9292 18.2642L29.5422 17.8777C29.2517 17.5872 28.7787 17.5862 28.4873 17.8787C28.1963 18.1702 28.1963 18.6422 28.4883 18.9336L28.8752 19.3201C29.0205 19.4653 29.2114 19.5379 29.4019 19.5379ZM31.4775 19.8125C31.186 19.52 30.713 19.521 30.4226 19.8115C30.1306 20.103 30.1306 20.575 30.4216 20.8664L30.808 21.2534C30.9538 21.3996 31.1452 21.4722 31.3362 21.4722C31.5272 21.4722 31.7182 21.3996 31.8634 21.2544C32.1554 20.9629 32.1554 20.4909 31.8644 20.1994L31.4775 19.8125ZM27.4677 17.6041C27.6586 17.6041 27.8496 17.5315 27.9949 17.3863C28.2868 17.0948 28.2868 16.6228 27.9959 16.3314L27.6094 15.9444C27.3179 15.6519 26.8449 15.6529 26.5545 15.9434C26.2625 16.2349 26.2625 16.7069 26.5535 16.9983L26.9399 17.3853C27.0852 17.531 27.2767 17.6041 27.4677 17.6041ZM19.3858 15.2232L11.194 23.4165C10.9026 23.7079 10.9026 24.18 11.194 24.4714C11.3398 24.6171 11.5308 24.6898 11.7218 24.6898C11.9128 24.6898 12.1037 24.6171 12.2495 24.4714L20.4412 16.2781C20.7327 15.9867 20.7327 15.5147 20.4412 15.2232C20.1498 14.9317 19.6773 14.9322 19.3858 15.2232ZM21.5539 17.3918L13.3616 25.584C13.0701 25.8755 13.0701 26.3475 13.3616 26.639C13.5073 26.7847 13.6983 26.8573 13.8893 26.8573C14.0803 26.8573 14.2713 26.7847 14.417 26.639L22.6093 18.4467C22.9008 18.1552 22.9008 17.6832 22.6093 17.3918C22.3178 17.1003 21.8453 17.1003 21.5539 17.3918ZM23.7214 19.5598L15.5297 27.7521C15.2382 28.0436 15.2382 28.5156 15.5297 28.807C15.6754 28.9528 15.8664 29.0254 16.0574 29.0254C16.2484 29.0254 16.4394 28.9528 16.5851 28.807L24.7769 20.6148C25.0683 20.3233 25.0683 19.8513 24.7769 19.5598C24.4854 19.2684 24.0129 19.2684 23.7214 19.5598Z" fill="#FC2E5E"/>
</svg>
