<svg width="28" height="35" viewBox="0 0 28 35" fill="none" xmlns="http://www.w3.org/2000/svg">
<path d="M27.4872 33.09L24.696 11.0115C24.6185 10.395 24.0942 9.93349 23.474 9.93349H21.855V6.83771C21.8402 5.02494 21.1129 3.29152 19.8299 2.01031C18.547 0.731034 16.8098 0.00921531 14.9968 0H12.4973C10.6845 0.00922996 8.94743 0.731034 7.66424 2.01031C6.38128 3.29143 5.65393 5.02485 5.63914 6.83771V9.93349H4.02017C3.39991 9.93349 2.87563 10.395 2.79813 11.0115L0.00697389 33.09C-0.0299464 33.4371 0.0808142 33.7841 0.313413 34.0462C0.546013 34.3065 0.878288 34.456 1.22904 34.4579H26.2649C26.6193 34.4579 26.9553 34.3047 27.1879 34.0388C27.4205 33.773 27.5294 33.4204 27.487 33.0697L27.4872 33.09ZM8.10052 6.83771C8.11529 4.41758 10.0776 2.46266 12.4977 2.46082H14.9991H14.9973C17.4248 2.46266 19.3908 4.43053 19.3945 6.85619V9.95197L8.10076 9.95382L8.10052 6.83771ZM2.6271 31.9969L5.08782 12.3754H22.3923L24.853 31.9969H2.6271Z" fill="#FC2E5E"/>
<path d="M16.0862 17.4561C15.4714 17.1681 14.7386 17.4284 14.4469 18.0413L10.8231 25.7354C10.6828 26.0289 10.6662 26.3667 10.777 26.675C10.8859 26.9814 11.1148 27.2307 11.4083 27.3691C11.5726 27.4485 11.7535 27.4891 11.9363 27.4873C12.4107 27.4873 12.8445 27.2122 13.0476 26.7839L16.6713 19.0899C16.8116 18.7963 16.8283 18.4585 16.7175 18.1502C16.6086 17.8438 16.3797 17.5946 16.0862 17.4561Z" fill="#FC2E5E"/>
<path d="M11.7243 18.8483C11.7243 18.2078 11.3384 17.63 10.744 17.3844C10.1515 17.1389 9.47029 17.2755 9.01619 17.7296C8.56392 18.1838 8.42915 18.8668 8.67652 19.4594C8.92389 20.0519 9.5017 20.4359 10.1441 20.4341C10.5632 20.4341 10.9675 20.2661 11.2628 19.9689C11.56 19.6717 11.7261 19.2692 11.7243 18.8483Z" fill="#FC2E5E"/>
<path d="M17.3508 23.9782C16.7102 23.9782 16.1324 24.364 15.8869 24.9566C15.6414 25.5492 15.7761 26.2303 16.2302 26.6844C16.6825 27.1367 17.3655 27.2733 17.9581 27.0278C18.5488 26.7823 18.9365 26.2045 18.9365 25.5639C18.9365 25.143 18.7685 24.7405 18.4713 24.4415C18.1741 24.1443 17.7717 23.9782 17.3508 23.9782Z" fill="#FC2E5E"/>
</svg>
