<svg width="32" height="32" viewBox="0 0 32 32" fill="none" xmlns="http://www.w3.org/2000/svg">
<path d="M29.0368 15.6298V11.6313C29.0368 5.21784 23.8192 0 17.4057 0H14.552C8.13848 0 2.92064 5.21759 2.92064 11.6313C2.92064 12.1829 3.3678 12.63 3.91932 12.63C4.47084 12.63 4.91799 12.1829 4.91799 11.6313C4.91799 6.31913 9.23977 1.99735 14.552 1.99735H17.4057C22.7174 1.99735 27.0394 6.31913 27.0394 11.6313V15.6261H24.4052C23.8537 15.6261 23.4065 16.0732 23.4065 16.6247V24.8656C23.4065 27.6464 21.1443 29.9084 18.3639 29.9084C17.8124 29.9084 17.3653 30.3555 17.3653 30.9071C17.3653 31.4586 17.8124 31.9057 18.3639 31.9057C21.9062 31.9057 24.8371 29.2737 25.3247 25.8642H28.9617C30.6137 25.8642 31.9577 24.5203 31.9577 22.8682V18.6221C31.9577 16.9952 30.6539 15.6702 29.0368 15.6298ZM29.9603 22.8682C29.9603 23.419 29.5122 23.8669 28.9617 23.8669H25.4039V17.6234H28.9617C29.5122 17.6234 29.9603 18.0713 29.9603 18.6221V22.8682Z" fill="#FC2E5E"/>
<path d="M23.4065 11.6313C23.4065 12.1829 23.8537 12.63 24.4052 12.63C24.9567 12.63 25.4039 12.1829 25.4039 11.6313C25.4039 7.19872 21.7979 3.59274 17.3653 3.59274H14.5924C10.1598 3.59274 6.55382 7.19872 6.55382 11.6313V15.6261H2.99603C1.34397 15.6261 0 16.97 0 18.6221V22.8682C0 24.5203 1.34397 25.8642 2.99603 25.8642H7.5525C8.10402 25.8642 8.55118 25.4171 8.55118 24.8656V16.6247V11.6313C8.55118 8.30001 11.2613 5.5901 14.5924 5.5901H17.365C20.6963 5.5901 23.4065 8.30001 23.4065 11.6313ZM6.55382 23.8669H2.99603C2.44526 23.8669 1.99735 23.419 1.99735 22.8682V18.6221C1.99735 18.0713 2.44526 17.6234 2.99603 17.6234H6.55382V23.8669Z" fill="#FC2E5E"/>
</svg>
