<svg width="52" height="47" viewBox="0 0 52 47" fill="none" xmlns="http://www.w3.org/2000/svg">
<path d="M48.1251 6.87178C34.6611 32.4077 17.381 32.3837 3.91699 6.87178" stroke="#333333" stroke-width="3.6" stroke-linecap="round" stroke-linejoin="round"/>
<path d="M2 11.6V35.6C2 38.1461 3.01143 40.5877 4.81177 42.3881C6.61213 44.1884 9.05394 45.2 11.6 45.2H40.3999C42.9461 45.2 45.3878 44.1884 47.1881 42.3881C48.9886 40.5877 49.9999 38.1461 49.9999 35.6V11.6C49.9999 9.05394 48.9886 6.61198 47.1881 4.81162C45.3878 3.01129 42.9461 2 40.3999 2H11.6C9.05394 2 6.61213 3.01129 4.81177 4.81162C3.01143 6.61198 2 9.05394 2 11.6Z" stroke="#7DC02D" stroke-width="3.6" stroke-linecap="round" stroke-linejoin="round"/>
</svg>
