<svg width="19" height="20" viewBox="0 0 19 20" fill="none" xmlns="http://www.w3.org/2000/svg">
<path d="M9.24999 11.2065C11.3949 11.2065 13.1377 9.46376 13.1377 7.31883C13.1377 5.17391 11.3949 3.43115 9.24999 3.43115C7.10506 3.43115 5.3623 5.17391 5.3623 7.31883C5.3623 9.46376 7.10506 11.2065 9.24999 11.2065ZM9.24999 4.77173C10.6545 4.77173 11.7971 5.91436 11.7971 7.31883C11.7971 8.72331 10.6545 9.86593 9.24999 9.86593C7.84551 9.86593 6.70288 8.72331 6.70288 7.31883C6.70288 5.91436 7.84551 4.77173 9.24999 4.77173Z" fill="white"/>
<path d="M9.25 19.25C14.3496 19.25 18.5 15.0996 18.5 10C18.5 4.90043 14.3496 0.75 9.25 0.75C4.15043 0.75 0 4.90043 0 10C0 15.0996 4.15043 19.25 9.25 19.25ZM4.09922 15.9948C5.0701 14.0478 7.04528 12.8152 9.25 12.8152C11.4536 12.8152 13.4331 14.049 14.4029 15.9929C13.0163 17.1858 11.218 17.9074 9.25 17.9074C7.28203 17.9074 5.4827 17.1837 4.09922 15.9929V15.9948ZM9.25 2.09058C13.6122 2.09058 17.1594 5.63775 17.1594 10C17.1594 11.8904 16.4923 13.6279 15.3821 14.9894C14.1222 12.8256 11.8138 11.4746 9.25003 11.4746C6.68721 11.4746 4.37782 12.8257 3.11795 14.9894C2.00779 13.6278 1.34063 11.8902 1.34063 10C1.34063 5.63775 4.88775 2.09058 9.25 2.09058Z" fill="white"/>
</svg>
