<?xml version="1.0" encoding="utf-8"?>
<!-- Generator: Adobe Illustrator 16.0.0, SVG Export Plug-In . SVG Version: 6.00 Build 0)  -->
<!DOCTYPE svg PUBLIC "-//W3C//DTD SVG 1.1//EN" "http://www.w3.org/Graphics/SVG/1.1/DTD/svg11.dtd">
<svg version="1.1" id="Layer_1" xmlns="http://www.w3.org/2000/svg" xmlns:xlink="http://www.w3.org/1999/xlink" x="0px" y="0px"
	 width="184px" height="49.534px" viewBox="0 0 184 49.534" enable-background="new 0 0 184 49.534" xml:space="preserve">
<g id="Group_9761" transform="translate(-1026 -7866.199)">
	<g id="Group_9754" transform="translate(1088 7938.195)">
		<g id="ZebraSCI_Logo">
			<g>
				<defs>
					<rect id="SVGID_1_" x="-62" y="-71.996" width="184" height="49.534"/>
				</defs>
				<clipPath id="SVGID_2_">
					<use xlink:href="#SVGID_1_"  overflow="visible"/>
				</clipPath>
				<g id="Group_9412" clip-path="url(#SVGID_2_)">
					<path id="Path_7756" fill="#FFFFFF" d="M-26.885-24.443c0,0,3.665-1.812,4.686-4.089c1.021-2.276,1.287-5.543,2.938-7.834
						c0.867-1.283,2.027-2.34,3.385-3.084c0,0-3.945-1.272-7.358,3.141s-4.953,7.991-7.863,9.928
						c-2.91,1.938-3.665,1.938-3.665,1.938s4.855-1.018,7.737-3c2.882-1.982,3.372-3.266,3.372-3.266
						c-0.266,2.415-1.417,4.646-3.231,6.264 M-53.211-71.906c-1.69,0.604-3.228,1.571-4.505,2.832
						c-1.359,1.725-2.533,3.587-3.502,5.558c0,0-0.172-4.257,0-5.389c0.267-1.716,1.737-2.986,3.474-3
						C-55.38-72.028-53.211-71.905-53.211-71.906 M-61.218-56.696c1.897-2.712,13.1-15.21,16.218-15.21
						C-52.682-73.03-62.349-63.25-61.218-56.696 M-61.218-44.52c0.906-2.023,2.095-3.909,3.529-5.6c1.235-1.405,2.548-2.74,3.931-4
						C-53.758-54.12-62.572-53.128-61.218-44.52 M-61.218-53.373c0,0,7.585-1.813,12.818-7.328s10.045-11.205,10.045-11.205
						c-4.12,0.423-7.889,2.508-10.436,5.774c-4.17,5.458-12.427,12.756-12.427,12.756 M-61.218-33.987
						c1.744-3.309,4.006-6.316,6.7-8.91c3.889-3.422,8.87-7.948,10.549-11.285c1.98-3.805,5.074-6.915,8.869-8.913
						c4.477-2.546,4.449-3.706,8.254-5.855c1.875-1.094,3.811-2.081,5.797-2.955c0,0-7.527,0.3-11.444,2.9
						c-2.238,1.461-4.324,3.143-6.226,5.021c0.847-1.366,1.861-2.62,3.019-3.733c1.376-1.192,2.826-2.297,4.34-3.309
						c0,0-4.044,0.042-6.38,1.9c-2.336,1.858-4.686,5.3-7.233,8.217c-2.547,2.917-3.316,4-5.316,5.6
						C-54.021-52.332-63.257-41.646-61.218-33.987 M-14.267-65.937c-0.205,1.44-0.82,2.791-1.774,3.889
						c-2.184,2.445-5.1,1.531-7.638,1.584C-19.932-64.535-17.691-61.985-14.267-65.937 M-14.266-71.907c0,0-0.166,2.491-3.8,5.715
						c-3.634,3.224-9.512,4.639-13.653,6.563c-4.141,1.924-10.185,7.355-10.185,7.355s3.268-7.322,9.676-10.183
						s6.77-3.281,9.848-5.827S-17.65-71.707-14.266-71.907 M-48.708-28.148c3.413-2.545,6.938-7.242,9.121-10.916
						c2.183-3.675,6.6-10.071,11.137-13.013c4.537-2.942,7.106-2.772,9.541-1.612c1.809,1.052,3.388,2.456,4.643,4.13
						c0,0-1.565-10.07-10.211-9.023c-6.823,0.826-36.744,20.944-36.741,30.041c5.571-8.377,7.6-8.736,15.307-13.408
						c2.377-1.442,3.19-1.471,3.19-1.471c-1.015,2.549-2.757,4.742-5.009,6.309c-6.808,5.162-11.027,5.677-14.27,14.65
						C-58.86-25.745-53.2-24.798-48.708-28.148 M-14.267-45.77c-2.316-1.257-4.872-2.009-7.5-2.206
						c-4.253-0.283-8.7,2.743-8.7,2.743s2.434-4.158,6.072-5.8s9.094,1.726,10.127,5.261 M-45.534-24.443
						c0,0,7.78-0.607,12.227-5.162c4.447-4.556,6.156-7.353,9.765-9.813c3.609-2.463,9.275-2.914,9.275-2.914
						s-4.63-4.5-10.171-1.557c-4.379,2.463-8.176,5.84-11.135,9.9c-2.127,2.716-3.834,3.252-3.834,3.252s2.63-2.318,3.246-3.899
						c1.545-2.947,3.701-5.531,6.323-7.58c1.473-1.173,3.045-2.214,4.7-3.111c-3.646,0.655-6.96,2.53-9.4,5.318
						c-4.142,4.695-7.331,9.151-10.325,12.361c-2.994,3.21-3.694,3.209-3.694,3.209L-45.534-24.443z M-18.701-24.443
						c0,0,4.434-0.058,4.434-3.946v-8.584c0,0-2.182,0.593-3.106,4.072c-0.924,3.479-1.693,5.615-3.483,6.887
						c-0.811,0.627-1.693,1.154-2.63,1.571H-18.701z"/>
					<path id="Path_7757" fill="#FFFFFF" d="M118.526-44.919h2.547v-17.828h-2.547V-44.919z M108.084-44.72
						c2.564,0.098,5.047-0.924,6.799-2.8l-1.654-1.6c-1.289,1.4-3.115,2.179-5.018,2.139c-3.783,0.112-6.941-2.864-7.053-6.647
						s2.863-6.941,6.646-7.053c0.135-0.004,0.271-0.004,0.406,0c1.898-0.05,3.727,0.72,5.018,2.114l1.654-1.6
						c-1.748-1.864-4.221-2.877-6.773-2.776c-5.426,0-9.449,3.846-9.449,9.118s4.023,9.118,9.422,9.118 M89.491-44.707
						c4.713,0,6.9-2.343,6.9-5.068c0-6.545-10.801-3.821-10.801-8.175c0-1.554,1.301-2.827,4.33-2.827
						c1.734,0.014,3.43,0.517,4.891,1.452l0.84-2.038c-1.719-1.068-3.709-1.616-5.732-1.579c-4.686,0-6.824,2.343-6.824,5.094
						c0,6.622,10.801,3.871,10.801,8.226c0,1.553-1.324,2.751-4.406,2.751c-2.143,0.02-4.223-0.709-5.883-2.063l-0.943,1.987
						c1.945,1.521,4.359,2.313,6.826,2.241"/>
					<path id="Path_7758" fill="#FFFFFF" d="M68.432-51.414l3.846-8.736l3.846,8.736H68.432z M78.975-44.921h2.674l-8.1-17.828
						h-2.518l-8.076,17.828h2.623l1.961-4.457h9.475L78.975-44.921z M54.016-52.511h-4.33v-8.021h4.33c3.26,0,4.967,1.452,4.967,4
						c0,2.548-1.705,4.024-4.967,4.024 M61.833-44.921l-4.229-5.985c2.432-0.77,4.043-3.08,3.922-5.628
						c0-3.871-2.799-6.214-7.438-6.214h-6.952v17.827h2.547v-5.423h4.404c0.383,0,0.766-0.026,1.121-0.051l3.846,5.476
						L61.833-44.921z M36.262-46.984h-5.857v-5.937h5.857c2.827,0,4.355,0.917,4.355,2.98s-1.528,2.954-4.355,2.954 M35.625-60.688
						c2.6,0,4.075,0.968,4.075,2.853c0,1.885-1.478,2.853-4.075,2.853h-5.221v-5.703L35.625-60.688z M39.854-54.167
						c1.518-0.729,2.459-2.29,2.394-3.973c0-2.878-2.292-4.61-6.394-4.61h-8v17.829h8.508c4.508,0,6.826-1.757,6.826-4.814
						c0.113-2.092-1.295-3.962-3.336-4.432 M13.338-47.139v-5.753h8.939v-2.165h-8.939v-5.475h10.035v-2.216H10.796v17.826h12.937
						v-2.214L13.338-47.139z M-4.108-47.139l11.155-13.88v-1.729H-7.338v2.216H3.69l-11.206,13.88v1.73h14.9v-2.214L-4.108-47.139z"
						/>
					<path id="Path_7759" fill="#FFFFFF" d="M-2.762-32.38c0.062,0.154,0.021,0.246-0.144,0.318
						c-0.644,0.279-1.338,0.422-2.039,0.42c-2.162,0-3.218-1.525-3.218-3.639c0-2.111,1.261-3.709,3.32-3.709
						c0.667-0.009,1.327,0.139,1.927,0.43c0.164,0.082,0.195,0.134,0.133,0.309l-0.236,0.645c-0.041,0.123-0.123,0.164-0.256,0.092
						c-0.457-0.246-0.968-0.373-1.486-0.368c-1.424,0-1.978,1.312-1.978,2.552c0,1.578,0.738,2.582,2,2.582
						c0.509-0.004,1.012-0.115,1.476-0.328c0.133-0.062,0.215-0.062,0.277,0.093L-2.762-32.38z"/>
					<path id="Path_7760" fill="#FFFFFF" d="M0.24-31.639c-1.284,0.071-2.383-0.91-2.455-2.194
						c-0.008-0.143-0.003-0.287,0.015-0.429c-0.112-1.321,0.869-2.481,2.189-2.594c0.103-0.009,0.207-0.011,0.311-0.007
						c1.276-0.078,2.375,0.891,2.455,2.168c0.009,0.148,0.004,0.298-0.015,0.445c0.112,1.328-0.874,2.494-2.201,2.607
						c-0.1,0.008-0.2,0.01-0.299,0.006 M0.291-35.889c-0.912,0-1.209,0.789-1.209,1.608c0,0.841,0.256,1.671,1.168,1.671
						s1.209-0.8,1.209-1.64C1.459-35.09,1.192-35.889,0.291-35.889"/>
					<path id="Path_7761" fill="#FFFFFF" d="M11.153-32.021c0,0.185-0.072,0.256-0.246,0.256H10.19
						c-0.185,0-0.266-0.071-0.266-0.256v-2.8c0-0.555-0.144-0.975-0.769-0.975c-0.425,0.027-0.831,0.188-1.158,0.461
						c0.021,0.094,0.041,1.467,0.041,1.609v1.704c0,0.185-0.072,0.256-0.246,0.256H7.116c-0.185,0-0.267-0.071-0.267-0.256v-2.8
						c0-0.543-0.113-0.975-0.738-0.975c-0.427,0.033-0.829,0.214-1.137,0.512v3.263c0,0.185-0.082,0.256-0.256,0.256H4
						c-0.184,0-0.266-0.071-0.266-0.256v-4.474c-0.013-0.119,0.072-0.225,0.19-0.238c0.019-0.002,0.037-0.001,0.056,0.002h0.666
						c0.154,0,0.246,0.052,0.256,0.195l0.01,0.256c0.416-0.368,0.95-0.575,1.506-0.584c0.521-0.029,1.019,0.226,1.3,0.666
						c0.48-0.434,1.105-0.672,1.752-0.666c0.585-0.035,1.14,0.262,1.435,0.769c0.2,0.469,0.284,0.978,0.246,1.486L11.153-32.021z"/>
					<path id="Path_7762" fill="#FFFFFF" d="M14.965-31.635c-0.527,0.016-1.035-0.197-1.394-0.584l-0.041,0.338
						c-0.01,0.093-0.082,0.123-0.215,0.123H12.69c-0.174,0-0.246-0.071-0.246-0.256v-6.685c0-0.164,0.041-0.256,0.2-0.277
						l0.83-0.113c0.113-0.01,0.2,0.021,0.2,0.186v2.541c0.378-0.321,0.857-0.498,1.354-0.5c0.482-0.016,0.953,0.157,1.312,0.481
						c0.55,0.573,0.833,1.351,0.779,2.142c0,1.414-0.769,2.601-2.162,2.601 M14.731-35.819c-0.396,0.021-0.771,0.186-1.056,0.461
						v2.193c0.244,0.306,0.61,0.488,1,0.5c0.892,0,1.158-0.768,1.158-1.567c0-0.83-0.256-1.589-1.107-1.589"/>
					<path id="Path_7763" fill="#FFFFFF" d="M18.816-37.388c-0.355-0.021-0.627-0.329-0.605-0.686
						c0.022-0.357,0.33-0.628,0.686-0.605c0.342,0.021,0.607,0.303,0.607,0.645c-0.01,0.367-0.316,0.657-0.684,0.646
						C18.819-37.388,18.818-37.388,18.816-37.388 M19.441-32.018c0,0.185-0.082,0.256-0.256,0.256h-0.718
						c-0.184,0-0.266-0.071-0.266-0.256v-4.479c0-0.174,0.1-0.235,0.266-0.235h0.718c0.164,0,0.256,0.052,0.256,0.235V-32.018z"/>
					<path id="Path_7764" fill="#FFFFFF" d="M25.252-32.028c0,0.175-0.063,0.267-0.246,0.267h-0.74
						c-0.186,0-0.246-0.092-0.246-0.267v-2.787c0-0.564-0.154-0.963-0.779-0.963c-0.446,0.025-0.871,0.199-1.209,0.49v3.267
						c0,0.174-0.072,0.256-0.246,0.256h-0.748c-0.122,0.015-0.232-0.073-0.246-0.195c-0.002-0.017-0.002-0.034,0-0.051v-4.464
						c-0.02-0.122,0.064-0.236,0.187-0.256c0.022-0.004,0.046-0.004,0.069,0h0.666c0.145,0,0.236,0.041,0.246,0.193l0.01,0.267
						c0.471-0.38,1.056-0.589,1.66-0.595c1.148,0,1.619,0.718,1.619,1.834L25.252-32.028z"/>
					<path id="Path_7765" fill="#FFFFFF" d="M31.369-31.956c0.004,0.104-0.074,0.189-0.178,0.195c-0.008,0-0.015,0-0.022-0.001
						h-0.492c-0.396,0.059-0.767-0.206-0.84-0.601h-0.021c-0.363,0.451-0.908,0.719-1.486,0.729c-1.445,0-2.1-1.189-2.1-2.521
						c0-1.772,1.065-2.704,2.213-2.704c0.504-0.012,0.987,0.207,1.312,0.594l0.021-0.276c0.01-0.111,0.105-0.193,0.215-0.185
						c0,0,0,0,0.001,0h0.717c0.11-0.009,0.206,0.072,0.216,0.183c0.002,0.014,0.001,0.028-0.001,0.043v3.617
						c0,0.184,0.041,0.276,0.185,0.276h0.082c0.123,0,0.185,0.041,0.185,0.174L31.369-31.956z M29.678-35.327
						c-0.24-0.32-0.614-0.514-1.015-0.523c-0.625,0-1.158,0.533-1.158,1.609c0,0.86,0.328,1.588,1.086,1.588
						c0.461-0.024,0.874-0.291,1.086-0.7L29.678-35.327z"/>
					<path id="Path_7766" fill="#FFFFFF" d="M33.736-36.731h1.158c0.123,0,0.194,0.041,0.194,0.174v0.486
						c0.005,0.102-0.073,0.189-0.177,0.195c-0.008,0-0.016,0-0.023,0h-1.152v2.346c-0.026,0.241,0.02,0.484,0.133,0.699
						c0.111,0.152,0.295,0.234,0.482,0.215c0.224-0.004,0.445-0.045,0.655-0.123c0.101-0.03,0.2-0.041,0.236,0.101l0.1,0.513
						c0.034,0.104-0.023,0.217-0.128,0.252c-0.006,0.001-0.01,0.002-0.015,0.004c-0.364,0.15-0.754,0.23-1.148,0.235
						c-0.452,0.038-0.899-0.118-1.229-0.43c-0.318-0.359-0.328-0.779-0.328-1.527v-2.289h-0.479c-0.195,0-0.225-0.041-0.225-0.256
						v-0.389c0-0.123,0.061-0.2,0.184-0.2h0.522v-1.082c0-0.164,0.041-0.256,0.205-0.277l0.83-0.113c0.112-0.01,0.2,0.021,0.2,0.185
						L33.736-36.731z"/>
					<path id="Path_7767" fill="#FFFFFF" d="M36.852-37.388c-0.357-0.021-0.629-0.329-0.606-0.686
						c0.022-0.357,0.329-0.628,0.687-0.605c0.34,0.021,0.606,0.303,0.606,0.645c-0.011,0.367-0.316,0.657-0.684,0.646
						C36.854-37.388,36.852-37.388,36.852-37.388 M37.477-32.018c0,0.185-0.082,0.256-0.256,0.256h-0.719
						c-0.184,0-0.266-0.071-0.266-0.256v-4.479c0-0.174,0.1-0.235,0.266-0.235h0.719c0.163,0,0.256,0.052,0.256,0.235V-32.018z"/>
					<path id="Path_7768" fill="#FFFFFF" d="M40.971-31.639c-1.284,0.071-2.383-0.91-2.455-2.194
						c-0.008-0.143-0.003-0.287,0.016-0.429c-0.112-1.321,0.868-2.481,2.189-2.594c0.103-0.009,0.207-0.011,0.311-0.007
						c1.275-0.078,2.375,0.891,2.454,2.168c0.009,0.148,0.004,0.298-0.015,0.445c0.111,1.328-0.874,2.494-2.201,2.607
						c-0.1,0.008-0.199,0.01-0.299,0.006 M41.021-35.889c-0.912,0-1.209,0.789-1.209,1.608c0,0.841,0.256,1.671,1.168,1.671
						s1.209-0.8,1.209-1.64C42.189-35.09,41.922-35.889,41.021-35.889"/>
					<path id="Path_7769" fill="#FFFFFF" d="M48.922-32.028c0,0.175-0.063,0.267-0.246,0.267h-0.74
						c-0.185,0-0.246-0.092-0.246-0.267v-2.787c0-0.564-0.153-0.963-0.778-0.963c-0.446,0.025-0.872,0.198-1.21,0.49v3.267
						c0,0.174-0.072,0.256-0.246,0.256h-0.748c-0.122,0.015-0.232-0.073-0.246-0.195c-0.002-0.017-0.002-0.034,0-0.051v-4.464
						c-0.02-0.121,0.063-0.236,0.184-0.256c0.024-0.004,0.049-0.004,0.072,0h0.666c0.145,0,0.235,0.041,0.246,0.193l0.012,0.267
						c0.47-0.38,1.055-0.589,1.659-0.595c1.148,0,1.619,0.718,1.619,1.834L48.922-32.028z"/>
					<path id="Path_7770" fill="#FFFFFF" d="M56.625-34.814c-0.6,0.411-1.322,0.608-2.049,0.563h-0.461v2.243
						c0,0.154-0.061,0.246-0.256,0.246h-0.82c-0.164,0-0.246-0.071-0.246-0.276v-6.537c0-0.2,0.063-0.277,0.256-0.277h1.486
						c0.873-0.102,1.744,0.183,2.389,0.779c0.338,0.408,0.52,0.924,0.512,1.455c0.031,0.693-0.27,1.361-0.809,1.8 M54.649-37.831
						h-0.533v2.567h0.277c0.5,0.072,1.006-0.065,1.4-0.379c0.215-0.258,0.324-0.587,0.307-0.922c0-0.933-0.572-1.261-1.455-1.261"/>
					<path id="Path_7771" fill="#FFFFFF" d="M60.92-36.792c0.041,0.047,0.057,0.112,0.041,0.174l-0.113,0.728
						c-0.021,0.133-0.094,0.164-0.205,0.144c-0.084-0.016-0.17-0.022-0.256-0.021c-0.383,0.015-0.742,0.193-0.984,0.492v3.255
						c0,0.164-0.072,0.256-0.246,0.256h-0.748c-0.164,0-0.246-0.082-0.246-0.256v-4.454c0-0.2,0.102-0.256,0.256-0.256h0.656
						c0.164,0,0.256,0.052,0.256,0.195l0.01,0.328c0.277-0.414,0.744-0.661,1.24-0.656c0.117-0.012,0.236,0.014,0.338,0.072"/>
					<path id="Path_7772" fill="#FFFFFF" d="M63.756-31.639c-1.283,0.071-2.381-0.91-2.453-2.194
						c-0.008-0.143-0.004-0.287,0.016-0.429c-0.113-1.321,0.867-2.481,2.188-2.594c0.104-0.009,0.209-0.011,0.313-0.007
						c1.275-0.078,2.375,0.892,2.453,2.168c0.01,0.147,0.004,0.296-0.016,0.443c0.113,1.326-0.873,2.494-2.199,2.605
						C63.958-31.637,63.858-31.635,63.756-31.639 M63.809-35.892c-0.912,0-1.209,0.789-1.209,1.609c0,0.84,0.256,1.67,1.168,1.67
						c0.91,0,1.209-0.801,1.209-1.641S64.711-35.892,63.809-35.892"/>
					<path id="Path_7773" fill="#FFFFFF" d="M71.668-32.018c0.018,0.123-0.068,0.237-0.191,0.254
						c-0.01,0.001-0.021,0.002-0.033,0.002h-0.666c-0.164,0-0.236-0.082-0.246-0.2l-0.02-0.277
						c-0.369,0.376-0.869,0.592-1.395,0.601c-1.486,0-2.162-1.178-2.162-2.552c0-1.434,0.801-2.674,2.244-2.674
						c0.457-0.004,0.898,0.168,1.23,0.48v-2.314c0-0.164,0.041-0.256,0.199-0.276l0.83-0.112c0.113-0.011,0.205,0.02,0.205,0.184
						L71.668-32.018z M70.43-35.368c-0.238-0.306-0.6-0.489-0.984-0.5c-0.83,0-1.201,0.769-1.201,1.608
						c0,0.841,0.307,1.619,1.137,1.619c0.402-0.026,0.779-0.21,1.045-0.513L70.43-35.368z"/>
					<path id="Path_7774" fill="#FFFFFF" d="M77.387-32.048c0,0.215-0.063,0.287-0.266,0.287h-0.656
						c-0.123,0.014-0.232-0.075-0.246-0.197c0-0.001,0-0.002,0-0.002l-0.01-0.257c-0.459,0.376-1.035,0.583-1.629,0.584
						c-1.148,0-1.619-0.727-1.619-1.834v-3.028c0-0.174,0.1-0.236,0.266-0.236h0.717c0.164,0,0.256,0.052,0.256,0.236v2.808
						c0,0.563,0.143,0.953,0.758,0.953c0.441-0.026,0.859-0.2,1.189-0.492v-3.269c0-0.174,0.092-0.236,0.256-0.236h0.727
						c0.164,0,0.258,0.052,0.258,0.236V-32.048z"/>
					<path id="Path_7775" fill="#FFFFFF" d="M82.018-32.827c0.113-0.041,0.195-0.021,0.225,0.082l0.145,0.5
						c0.041,0.153,0.031,0.225-0.123,0.299c-0.465,0.215-0.973,0.32-1.486,0.309c-1.266,0.091-2.367-0.862-2.459-2.129
						c-0.01-0.145-0.006-0.289,0.01-0.434c-0.129-1.337,0.852-2.525,2.188-2.655c0.119-0.011,0.236-0.015,0.355-0.009
						c0.473-0.001,0.939,0.097,1.373,0.287c0.133,0.062,0.133,0.134,0.1,0.267l-0.133,0.554c-0.031,0.113-0.1,0.153-0.236,0.092
						c-0.309-0.144-0.645-0.221-0.984-0.225c-0.881,0-1.383,0.625-1.383,1.629c0,0.984,0.451,1.66,1.332,1.66
						c0.371,0.003,0.738-0.074,1.076-0.225"/>
					<path id="Path_7776" fill="#FFFFFF" d="M84.702-36.731h1.158c0.123,0,0.195,0.041,0.195,0.174v0.486
						c0.006,0.102-0.072,0.189-0.176,0.195c-0.01,0-0.02,0-0.029,0h-1.146v2.346c-0.025,0.241,0.02,0.484,0.133,0.699
						c0.111,0.152,0.295,0.234,0.482,0.215c0.223-0.004,0.445-0.045,0.656-0.123c0.1-0.03,0.199-0.041,0.234,0.101l0.102,0.513
						c0.033,0.104-0.023,0.217-0.129,0.252c-0.006,0.001-0.01,0.002-0.016,0.004c-0.363,0.15-0.754,0.23-1.146,0.235
						c-0.453,0.038-0.9-0.118-1.23-0.43c-0.318-0.359-0.328-0.779-0.328-1.527v-2.289h-0.48c-0.195,0-0.227-0.041-0.227-0.256
						v-0.389c0-0.123,0.063-0.2,0.186-0.2h0.521v-1.082c0-0.164,0.041-0.256,0.205-0.277l0.83-0.113
						c0.113-0.01,0.199,0.021,0.199,0.185L84.702-36.731z"/>
					<path id="Path_7777" fill="#FFFFFF" d="M93.647-35.103c0,0.143-0.051,0.225-0.246,0.225h-2.377v2.049h2.748
						c0.174,0,0.256,0.072,0.256,0.236v0.584c0,0.164-0.072,0.246-0.246,0.246h-3.801c-0.205,0-0.277-0.051-0.277-0.277v-6.557
						c0-0.164,0.072-0.256,0.236-0.256h3.861c0.205,0,0.236,0.092,0.217,0.234l-0.072,0.615c-0.021,0.185-0.133,0.215-0.348,0.215
						h-2.572v1.855h2.377c0.195,0,0.246,0.082,0.246,0.225L93.647-35.103z"/>
					<path id="Path_7778" fill="#FFFFFF" d="M96.383-34.333l-1.506-2.152c-0.072-0.1-0.041-0.246,0.1-0.246h1.051
						c0.129-0.014,0.254,0.051,0.318,0.164l0.809,1.291h0.01l0.84-1.281c0.057-0.113,0.176-0.182,0.301-0.174h0.891
						c0.154,0,0.174,0.123,0.1,0.225l-1.557,2.029l1.73,2.47c0.082,0.113,0.041,0.246-0.121,0.246h-1.047
						c-0.146,0.022-0.289-0.052-0.357-0.185l-0.963-1.567h-0.012l-0.982,1.548c-0.08,0.139-0.232,0.217-0.391,0.2h-0.869
						c-0.145,0-0.186-0.123-0.1-0.226L96.383-34.333z"/>
					<path id="Path_7779" fill="#FFFFFF" d="M104.325-32.335c-0.396,0.455-0.975,0.711-1.578,0.699
						c-0.461,0.009-0.906-0.164-1.24-0.482v2.306c0,0.205-0.092,0.266-0.266,0.266h-0.717c-0.164,0-0.246-0.092-0.246-0.266v-6.683
						c0-0.174,0.082-0.235,0.246-0.235h0.615c0.174,0,0.268,0.041,0.277,0.194l0.01,0.266c0.381-0.381,0.896-0.594,1.436-0.594
						c0.563-0.021,1.105,0.208,1.486,0.625c0.441,0.538,0.67,1.22,0.645,1.916c0.021,0.721-0.215,1.425-0.666,1.988 M103.405-35.45
						c-0.189-0.275-0.508-0.434-0.84-0.42c-0.404,0.021-0.783,0.201-1.057,0.5v2.233c0.244,0.306,0.611,0.487,1,0.5
						c0.318,0.005,0.619-0.135,0.82-0.379c0.264-0.362,0.393-0.804,0.369-1.25c0.023-0.417-0.082-0.832-0.299-1.188"/>
					<path id="Path_7780" fill="#FFFFFF" d="M109.719-32.878c0.164-0.062,0.225-0.021,0.256,0.092l0.143,0.522
						c0.053,0.104,0.01,0.231-0.094,0.283c-0.016,0.007-0.031,0.013-0.049,0.017c-0.547,0.221-1.133,0.332-1.723,0.328
						c-1.32,0.096-2.471-0.899-2.564-2.222c-0.01-0.134-0.008-0.268,0.004-0.401c-0.088-1.346,0.932-2.508,2.277-2.597
						c0.088-0.006,0.176-0.007,0.264-0.003c0.564-0.015,1.109,0.209,1.5,0.615c0.436,0.508,0.65,1.167,0.6,1.834v0.153
						c0,0.246-0.082,0.3-0.338,0.3h-3c0.047,0.769,0.697,1.359,1.465,1.334c0.432-0.005,0.859-0.088,1.262-0.246 M109.122-34.769
						v-0.082c0.051-0.529-0.338-1.001-0.867-1.052c-0.029-0.003-0.059-0.004-0.086-0.005c-0.621,0.023-1.119,0.518-1.148,1.138
						L109.122-34.769z"/>
					<path id="Path_7781" fill="#FFFFFF" d="M114.02-36.792c0.041,0.047,0.057,0.112,0.041,0.174l-0.113,0.728
						c-0.021,0.133-0.094,0.164-0.205,0.144c-0.086-0.016-0.17-0.022-0.256-0.021c-0.385,0.015-0.742,0.193-0.984,0.492v3.255
						c0,0.164-0.072,0.256-0.246,0.256h-0.748c-0.164,0-0.246-0.082-0.246-0.256v-4.454c0-0.2,0.1-0.256,0.256-0.256h0.656
						c0.164,0,0.256,0.052,0.256,0.195l0.01,0.328c0.277-0.414,0.742-0.661,1.24-0.656c0.117-0.012,0.236,0.014,0.338,0.072"/>
					<path id="Path_7782" fill="#FFFFFF" d="M116.272-36.731h1.158c0.123,0,0.195,0.041,0.195,0.174v0.486
						c0.006,0.102-0.074,0.189-0.176,0.195c-0.01,0-0.02,0-0.029,0h-1.146v2.346c-0.027,0.241,0.02,0.484,0.133,0.699
						c0.111,0.152,0.295,0.234,0.482,0.215c0.223-0.004,0.445-0.045,0.654-0.123c0.102-0.03,0.201-0.041,0.236,0.101l0.1,0.513
						c0.035,0.104-0.023,0.217-0.129,0.251c-0.004,0.001-0.008,0.003-0.012,0.003c-0.363,0.151-0.754,0.231-1.148,0.236
						c-0.451,0.039-0.898-0.117-1.229-0.43c-0.318-0.359-0.328-0.779-0.328-1.527v-2.288h-0.482c-0.193,0-0.225-0.041-0.225-0.256
						v-0.389c0-0.123,0.063-0.2,0.184-0.2h0.523v-1.082c0-0.164,0.041-0.256,0.205-0.277l0.83-0.113
						c0.113-0.01,0.199,0.021,0.199,0.185L116.272-36.731z"/>
					<path id="Path_7783" fill="#FFFFFF" d="M120.022-31.639c-0.545-0.013-1.08-0.136-1.578-0.358
						c-0.113-0.052-0.154-0.123-0.113-0.235l0.186-0.563c0.041-0.123,0.123-0.154,0.244-0.1c0.406,0.188,0.846,0.296,1.291,0.318
						c0.451,0,0.76-0.201,0.76-0.543c0-0.287-0.195-0.441-0.615-0.601l-0.811-0.308c-0.613-0.174-1.041-0.727-1.055-1.363
						c0-1,0.943-1.465,1.855-1.465c0.512-0.006,1.018,0.099,1.484,0.307c0.135,0.061,0.135,0.123,0.102,0.246l-0.174,0.553
						c-0.041,0.123-0.145,0.133-0.246,0.092c-0.354-0.143-0.729-0.226-1.107-0.246c-0.43,0-0.646,0.236-0.646,0.472
						s0.113,0.369,0.5,0.522l0.924,0.379c0.572,0.184,0.963,0.711,0.973,1.312c0,1.076-0.932,1.589-1.977,1.589"/>
				</g>
			</g>
		</g>
	</g>
</g>
</svg>
