<svg xmlns="http://www.w3.org/2000/svg" width="20.296" height="20.297" viewBox="0 0 20.296 20.297">
  <path id="phone" d="M19.521,15.664a3.9,3.9,0,0,0-.052-.642,3.626,3.626,0,0,0-.264-.893L12.771,13.11a3.824,3.824,0,0,0-.912,1.912A11.6,11.6,0,0,1,4.724,7.888a3.829,3.829,0,0,0,1.913-.913L5.617.542A3.64,3.64,0,0,0,4.724.277,3.9,3.9,0,0,0,4.082.225,3.857,3.857,0,0,0,.225,4.083,15.438,15.438,0,0,0,15.664,19.522,3.857,3.857,0,0,0,19.521,15.664Z" transform="translate(0.275 0.275)" fill="none" stroke="#060a3d" stroke-width="1"/>
</svg>
