<svg width="17" height="12" viewBox="0 0 17 12" fill="none" xmlns="http://www.w3.org/2000/svg">
<path id="Vector" d="M12.1373 10.8994C11.9916 11.0428 11.7964 11.1221 11.5938 11.1203C11.3912 11.1185 11.1974 11.0358 11.0541 10.8898C10.9108 10.7439 10.8296 10.5465 10.8278 10.3401C10.8261 10.1337 10.9039 9.93491 11.0447 9.78646L14.362 6.40746H0.772735C0.567793 6.40746 0.371245 6.32453 0.226329 6.17692C0.0814129 6.02931 0 5.82911 0 5.62036C0 5.41161 0.0814129 5.21141 0.226329 5.0638C0.371245 4.91619 0.567793 4.83326 0.772735 4.83326H14.362L11.0447 1.45426C10.9039 1.30581 10.8261 1.10699 10.8278 0.900618C10.8296 0.694244 10.9108 0.496831 11.0541 0.350897C11.1974 0.204963 11.3912 0.122184 11.5938 0.120391C11.7964 0.118598 11.9916 0.197933 12.1373 0.341309L16.7738 5.06388C16.9186 5.21149 17 5.41165 17 5.62036C17 5.82907 16.9186 6.02923 16.7738 6.17684L12.1373 10.8994Z" fill="#333333"/>
</svg>
