<svg width="30" height="18" viewBox="0 0 30 18" fill="none" xmlns="http://www.w3.org/2000/svg">
<path d="M29.7048 1.01068C28.6224 0.462639 27.4416 0.138796 26.2362 0.0391517C24.8831 -0.0854034 23.5547 0.0889738 22.2755 0.537372C22.2509 0.537372 22.2263 0.562283 22.2017 0.562283L15.5105 4.2242L9.48339 2.48043C8.52399 2.20641 7.51538 2.28114 6.60517 2.67972L5.20295 3.27759C5.03075 3.35232 4.93235 3.50178 4.90775 3.70107C4.88315 3.87545 4.98155 4.04983 5.12915 4.14947L10 7.26335L5.86716 9.53025L1.24231 8.03559C1.04551 7.96086 0.848709 8.03559 0.701107 8.18506L0.110701 8.93239C-0.0369004 9.10676 -0.0369004 9.38079 0.110701 9.55516L4.16974 14.4128C5.03075 15.4591 6.53137 15.7331 7.71218 15.0605L14.3542 11.2989L13.813 17.4769C13.7884 17.6512 13.8868 17.8256 14.0344 17.9253C14.1082 17.9751 14.2066 18 14.305 18C14.3788 18 14.4526 17.9751 14.5264 17.9502L15.7811 17.2776C16.3469 16.9786 16.7651 16.4555 16.9373 15.8078L18.8807 8.40926L29.754 1.88257C29.9016 1.78292 30 1.60855 30 1.43417C30 1.25979 29.877 1.08541 29.7048 1.01068ZM6.45756 3.82563L6.99877 3.57652C7.68758 3.27759 8.47479 3.22776 9.21279 3.42705L14.2804 4.8968L10.984 6.71531L6.45756 3.82563ZM18.2165 7.68684C18.1181 7.76157 18.0197 7.86121 17.9951 7.98577L16.0025 15.5836C15.9041 15.9324 15.6581 16.2313 15.3383 16.4057L14.8708 16.6548L15.3875 10.427C15.4121 10.2527 15.3137 10.0534 15.1661 9.95374C15.0923 9.90392 14.9939 9.87901 14.8954 9.87901C14.8216 9.87901 14.7232 9.90392 14.6494 9.95374L7.19557 14.1886C6.43296 14.6121 5.44895 14.4377 4.88315 13.7651L1.14391 9.25623L1.26691 9.10677L5.76876 10.5516C5.89176 10.6014 6.03936 10.5765 6.16236 10.5267L22.6691 1.48399C23.8007 1.08541 24.9815 0.960859 26.187 1.0605C26.9496 1.13524 27.7122 1.30961 28.4502 1.55872L18.2165 7.68684Z" fill="#0D0C22"/>
</svg>
