<svg width="23" height="20" viewBox="0 0 23 20" fill="none" xmlns="http://www.w3.org/2000/svg">
<path d="M7.27489 13.0685L7.21072 13.0543C6.94254 12.994 6.60876 12.9191 6.31126 13.2166L6.20431 13.3233C6.16563 13.362 6.13626 13.409 6.11841 13.4607C6.10056 13.5124 6.0947 13.5675 6.10128 13.6219C6.10785 13.6762 6.12668 13.7283 6.15635 13.7743C6.18602 13.8203 6.22575 13.8589 6.27253 13.8872L7.82368 14.8268L7.24882 15.8012C7.21366 15.8609 7.19918 15.9305 7.2076 15.9992C7.21603 16.068 7.24691 16.132 7.29543 16.1813C7.34395 16.2307 7.40741 16.2627 7.47594 16.2722C7.54446 16.2818 7.61423 16.2684 7.67439 16.2342L8.6612 15.6731L9.57585 17.1895C9.604 17.2365 9.64253 17.2764 9.6885 17.3062C9.73446 17.336 9.78663 17.3548 9.841 17.3613C9.85579 17.3631 9.87067 17.364 9.88557 17.364C9.93277 17.3641 9.97951 17.3548 10.0231 17.3366C10.0667 17.3185 10.1063 17.292 10.1396 17.2585L10.2465 17.1518C10.544 16.8543 10.4691 16.5203 10.4089 16.2519L10.0295 14.5148L12.902 12.0264L16.0324 15.9169C16.0549 15.9449 16.0829 15.9681 16.1146 15.985C16.1463 16.002 16.1811 16.0124 16.2169 16.0156C16.2527 16.0188 16.2888 16.0147 16.323 16.0036C16.3572 15.9925 16.3888 15.9746 16.4159 15.9511C16.5281 15.8513 16.6348 15.7454 16.7355 15.6339C17.149 15.1758 16.934 14.7018 16.726 14.243C16.7 14.1857 16.6731 14.1264 16.6461 14.0646L14.8948 10.0626L16.8187 8.13867C17.058 7.90628 17.221 7.60659 17.2862 7.27934C17.3456 6.94265 17.2611 6.63084 17.0542 6.42403C16.6466 6.01638 15.8777 6.12221 15.3399 6.65979L13.453 8.54663L9.48245 6.79172C8.91547 6.54115 8.32916 6.28202 7.89373 6.71456L7.5875 7.01865C7.56079 7.04519 7.53998 7.07708 7.52644 7.11222C7.51289 7.14737 7.50691 7.18498 7.50889 7.22259C7.51087 7.26021 7.52076 7.29698 7.53791 7.33051C7.55507 7.36404 7.5791 7.39357 7.60844 7.41716L11.4889 10.5375L8.94934 13.4339L7.27489 13.0685ZM9.24711 13.9056L12.0748 10.6806C12.0986 10.6534 12.1167 10.6217 12.1279 10.5874C12.1391 10.5531 12.1433 10.5168 12.1402 10.4809C12.1371 10.4449 12.1267 10.4099 12.1097 10.378C12.0927 10.3462 12.0694 10.3181 12.0413 10.2955L8.17649 7.18746L8.27007 7.09443C8.42996 6.93565 8.6964 7.0294 9.26619 7.28126L13.4043 9.11016C13.4536 9.13197 13.5083 9.13834 13.5613 9.12844C13.6144 9.11853 13.6631 9.09282 13.7013 9.05468L15.7179 7.0385C16.0697 6.68664 16.5053 6.63182 16.676 6.80273C16.7877 6.91424 16.7762 7.09104 16.7594 7.1863C16.7124 7.40516 16.6013 7.60502 16.4402 7.76027L14.387 9.81339C14.349 9.85146 14.3233 9.90013 14.3133 9.95303C14.3034 10.0059 14.3096 10.0606 14.3312 10.1099L16.1559 14.2794C16.1838 14.3433 16.2117 14.4048 16.2387 14.4642C16.4604 14.9533 16.4992 15.0969 16.3383 15.2751C16.3135 15.3026 16.2889 15.3289 16.2653 15.3535L13.1445 11.4746C13.1219 11.4466 13.094 11.4235 13.0623 11.4065C13.0307 11.3896 12.9959 11.3792 12.9602 11.376C12.9244 11.3727 12.8883 11.3768 12.8542 11.3878C12.82 11.3988 12.7884 11.4166 12.7612 11.4402L9.55914 14.2143C9.52278 14.2458 9.49558 14.2865 9.4804 14.3322C9.46521 14.3779 9.46261 14.4268 9.47287 14.4738L9.87189 16.3021L9.88681 16.3694C9.93231 16.5721 9.94274 16.6537 9.91355 16.7138L8.9845 15.1734C8.94849 15.1136 8.89061 15.0704 8.82319 15.0527C8.75576 15.0351 8.68413 15.0445 8.62354 15.079L8.13085 15.3592L8.41882 14.8711C8.45463 14.8104 8.46507 14.738 8.44789 14.6697C8.43072 14.6014 8.3873 14.5426 8.32706 14.5061L6.7486 13.5499C6.80902 13.5204 6.89053 13.5309 7.09369 13.5766L8.98918 13.9907C9.03587 14.0008 9.08441 13.9983 9.12977 13.9833C9.17513 13.9683 9.21565 13.9414 9.24711 13.9054V13.9056Z" fill="black" stroke="black" stroke-width="0.2"/>
<path d="M19.3273 4.03708H16.7934V3.20014C16.7924 2.56623 16.5467 1.95722 16.1078 1.50026C15.6688 1.0433 15.0704 0.773702 14.4376 0.747758C14.2618 0.588401 14.0331 0.500102 13.7959 0.5H9.59411C9.35686 0.500176 9.12815 0.588607 8.9524 0.748115C8.32212 0.777624 7.72735 1.04872 7.29136 1.50523C6.85537 1.96173 6.6116 2.56863 6.61057 3.20014V4.03708H4.07668C3.63843 4.03707 3.20447 4.12346 2.79957 4.29131C2.39468 4.45916 2.02679 4.70518 1.7169 5.01533C1.40701 5.32548 1.16119 5.69369 0.993474 6.09892C0.825761 6.50416 0.739441 6.93849 0.739441 7.37711V16.6238C0.739441 17.3866 1.04221 18.1182 1.58115 18.6576C2.12009 19.197 2.85105 19.5 3.61322 19.5H4.98474C5.05565 19.5 5.12366 19.4718 5.1738 19.4216C5.22394 19.3714 5.25211 19.3034 5.25211 19.2324C5.25211 19.1614 5.22394 19.0934 5.1738 19.0432C5.12366 18.993 5.05565 18.9648 4.98474 18.9648H3.61322C2.99287 18.9648 2.39793 18.7181 1.95928 18.2791C1.52063 17.8401 1.2742 17.2446 1.2742 16.6238V7.37711C1.2742 6.63322 1.56945 5.91981 2.09501 5.3938C2.62057 4.8678 3.33338 4.57229 4.07663 4.57229H19.3272C19.6952 4.57228 20.0597 4.64483 20.3997 4.78578C20.7397 4.92673 21.0486 5.13333 21.3089 5.39378C21.5691 5.65424 21.7755 5.96344 21.9164 6.30374C22.0572 6.64404 22.1297 7.00877 22.1297 7.37711V16.6238C22.1297 17.2446 21.8833 17.8401 21.4446 18.2791C21.0059 18.7181 20.411 18.9648 19.7907 18.9648H7.21289C7.14197 18.9648 7.07396 18.993 7.02382 19.0432C6.97368 19.0934 6.94551 19.1614 6.94551 19.2324C6.94551 19.3034 6.97368 19.3714 7.02382 19.4216C7.07396 19.4718 7.14197 19.5 7.21289 19.5H19.7907C20.5528 19.5 21.2838 19.197 21.8227 18.6576C22.3617 18.1182 22.6644 17.3866 22.6644 16.6238V7.37711C22.6644 6.49128 22.3128 5.64173 21.687 5.01535C21.0612 4.38897 20.2123 4.03708 19.3273 4.03708ZM9.59411 1.03521H13.7957C13.8521 1.03463 13.908 1.04525 13.9603 1.06644C14.0125 1.08763 14.0601 1.11898 14.1001 1.15868C14.1402 1.19837 14.172 1.24562 14.1937 1.2977C14.2154 1.34977 14.2266 1.40564 14.2266 1.46206C14.2266 1.51849 14.2154 1.57436 14.1937 1.62643C14.172 1.6785 14.1402 1.72576 14.1001 1.76545C14.0601 1.80514 14.0125 1.83649 13.9603 1.85769C13.908 1.87888 13.8521 1.88949 13.7957 1.88892H9.59411C9.48175 1.88777 9.37439 1.84229 9.29534 1.76236C9.2163 1.68244 9.17196 1.57452 9.17196 1.46206C9.17196 1.34961 9.2163 1.24169 9.29534 1.16176C9.37439 1.08184 9.48175 1.03636 9.59411 1.03521ZM7.64123 3.14185V4.03708H7.1452V3.20014C7.14598 2.76429 7.29467 2.34163 7.5669 2.00143C7.83913 1.66124 8.21874 1.42368 8.64354 1.3277C8.62234 1.46768 8.63337 1.61065 8.6758 1.7457C8.37683 1.83704 8.11501 2.02194 7.92882 2.27324C7.74263 2.52454 7.64189 2.82899 7.6414 3.14185H7.64123ZM15.2275 4.03708H8.17616V3.14185C8.17657 2.91281 8.26177 2.69206 8.41531 2.52223C8.56885 2.3524 8.77982 2.24554 9.00748 2.22231C9.17515 2.35303 9.38158 2.42405 9.59411 2.42413H13.7957C14.0088 2.4241 14.2157 2.35281 14.3836 2.2216C14.6137 2.24176 14.8279 2.34737 14.9842 2.51766C15.1404 2.68795 15.2273 2.91058 15.2277 3.14176L15.2275 4.03708ZM16.2585 4.03708H15.7625V3.14185C15.762 2.82673 15.6597 2.52021 15.471 2.26797C15.2823 2.01573 15.0172 1.83126 14.7152 1.74205C14.7573 1.60703 14.7678 1.46417 14.746 1.32445C15.174 1.41776 15.5572 1.6546 15.8323 1.99572C16.1074 2.33684 16.2578 2.76178 16.2586 3.20014L16.2585 4.03708Z" fill="black" stroke="black" stroke-width="0.2"/>
</svg>
