<svg width="13" height="14" viewBox="0 0 13 14" fill="none" xmlns="http://www.w3.org/2000/svg">
<g id="&#240;&#159;&#166;&#134; icon &#34;instagram alt&#34;">
<path id="Vector" d="M12.429 4.53527C12.4214 4.01111 12.3244 3.4911 12.1389 3.00086C11.8141 2.16373 11.1528 1.50177 10.3157 1.17772C9.8317 0.995609 9.32 0.897978 8.80207 0.886899C8.13596 0.857125 7.92477 0.848816 6.23388 0.848816C4.54298 0.848816 4.32625 0.848816 3.66499 0.886899C3.14775 0.897978 2.63605 0.995609 2.15205 1.17772C1.31491 1.50177 0.652954 2.16373 0.3289 3.00086C0.146793 3.48487 0.0484695 3.99657 0.0387756 4.51381C0.00900148 5.18061 0 5.3918 0 7.08269C0 8.77359 -5.15895e-09 8.98962 0.0387756 9.65158C0.049162 10.1695 0.146793 10.6805 0.3289 11.1659C0.653646 12.0023 1.31491 12.6643 2.15274 12.9884C2.63467 13.1767 3.14637 13.2833 3.66568 13.2999C4.33249 13.3297 4.54367 13.3387 6.23457 13.3387C7.92546 13.3387 8.14219 13.3387 8.80346 13.2999C9.32069 13.2896 9.83239 13.1919 10.3171 13.0098C11.1542 12.6851 11.8155 12.0231 12.1402 11.1867C12.3223 10.702 12.42 10.191 12.4304 9.67235C12.4601 9.00624 12.4691 8.79505 12.4691 7.10346C12.4678 5.41257 12.4678 5.19792 12.429 4.53527ZM6.22972 10.2803C4.46128 10.2803 3.02865 8.84767 3.02865 7.07923C3.02865 5.31078 4.46128 3.87816 6.22972 3.87816C7.99678 3.87816 9.43079 5.31078 9.43079 7.07923C9.43079 8.84767 7.99678 10.2803 6.22972 10.2803ZM9.5582 4.50619C9.14482 4.50619 8.81176 4.17244 8.81176 3.75976C8.81176 3.34707 9.14482 3.01333 9.5582 3.01333C9.97019 3.01333 10.3039 3.34707 10.3039 3.75976C10.3039 4.17244 9.97019 4.50619 9.5582 4.50619Z" fill="#333333"/>
<path id="Vector_2" d="M6.22952 9.15875C7.37791 9.15875 8.30886 8.22779 8.30886 7.0794C8.30886 5.93101 7.37791 5.00006 6.22952 5.00006C5.08113 5.00006 4.15018 5.93101 4.15018 7.0794C4.15018 8.22779 5.08113 9.15875 6.22952 9.15875Z" fill="#333333"/>
</g>
</svg>
