<svg width="14" height="11" viewBox="0 0 14 11" fill="none" xmlns="http://www.w3.org/2000/svg">
<g id="&#240;&#159;&#166;&#134; icon &#34;twitter&#34;">
<path id="Vector" d="M13.4383 1.33731C12.9668 1.54404 12.462 1.68627 11.9299 1.75077C12.4728 1.42505 12.8878 0.909816 13.0858 0.296026C12.5765 0.592504 12.0132 0.807251 11.4143 0.928646C10.9367 0.417422 10.254 0.0957031 9.49637 0.0957031C8.04403 0.0957031 6.86693 1.2724 6.86693 2.72274C6.86693 2.93148 6.89217 3.1318 6.93584 3.32171C4.75112 3.21954 2.81439 2.16985 1.5191 0.584091C1.29154 0.970314 1.16213 1.41904 1.16213 1.90742C1.16213 2.8213 1.62728 3.62259 2.33041 4.09375C1.90052 4.08133 1.49587 3.96234 1.14129 3.76642V3.79807C1.14129 5.07253 2.04676 6.13504 3.24869 6.37703C3.02954 6.43513 2.79556 6.46878 2.55798 6.46878C2.38931 6.46878 2.22825 6.45235 2.06759 6.42271C2.40573 7.46599 3.3737 8.22561 4.52756 8.24845C3.63051 8.95159 2.49348 9.37066 1.2683 9.37066C1.05956 9.37066 0.851227 9.36064 0.64209 9.3354C1.81077 10.0806 3.1902 10.5165 4.6802 10.5165C9.5148 10.5165 12.1567 6.51205 12.1567 3.04406C12.1567 2.93348 12.1567 2.8209 12.1482 2.70792C12.6639 2.34052 13.1102 1.87497 13.4628 1.34732L13.4383 1.33731Z" fill="#333333"/>
</g>
</svg>
